Hanif_Medium_7_5_grf.mot
version=1
nRows=21
nColumns=19
inDegrees=yes
endheader
time	right_ground_force_vx	right_ground_force_vy	right_ground_force_vz	right_ground_force_px	right_ground_force_py	right_ground_force_pz	right_ground_torque_x	right_ground_torque_y	right_ground_torque_z	left_ground_force_vx	left_ground_force_vy	left_ground_force_vz	left_ground_force_px	left_ground_force_py	left_ground_force_pz	left_ground_torque_x	left_ground_torque_y	left_ground_torque_z
2.075000	-5.975210	400.122000	61.102600	0.190661	0.000000	-1.441670	-25.817400	5.363800	-2.946190	-1.035530	370.625000	-65.230400	0.216631	0.000000	-0.974229	26.423300	-7.463070	7.681450
2.080000	-5.578040	397.908000	61.563700	0.190026	0.000000	-1.441870	-25.586200	5.230900	-3.199120	-1.918620	369.936000	-65.124400	0.216568	0.000000	-0.973481	26.118100	-7.375160	7.641150
2.085000	-5.176180	391.695000	61.994500	0.190364	0.000000	-1.441940	-25.158200	5.145970	-3.002090	-1.742190	367.662000	-65.121200	0.216810	0.000000	-0.973794	26.068800	-7.322040	7.693150
2.090000	-4.506150	391.218000	62.422100	0.189630	0.000000	-1.441810	-25.166800	5.241350	-3.277770	-0.951805	364.749000	-65.414600	0.215871	0.000000	-0.973894	25.880400	-7.292150	7.295050
2.095000	-4.047330	390.023000	62.682200	0.189993	0.000000	-1.440820	-25.470500	5.087130	-3.143910	0.297474	363.532000	-65.910000	0.216540	0.000000	-0.973579	25.650700	-7.322210	7.534190
2.100000	-2.663600	386.683000	63.085600	0.190534	0.000000	-1.441060	-25.144200	5.144500	-2.890260	0.569713	360.619000	-66.188800	0.215914	0.000000	-0.973102	25.267000	-7.345320	7.272910
2.105000	-2.485610	385.576000	62.616200	0.190963	0.000000	-1.441290	-24.980500	5.054060	-2.729420	0.312889	356.628000	-66.095100	0.215951	0.000000	-0.973712	25.210600	-7.243320	7.222450
2.110000	-2.526720	381.502000	61.163100	0.191926	0.000000	-1.440090	-25.176700	4.949740	-2.339110	0.466913	355.144000	-66.429000	0.216588	0.000000	-0.973506	25.029000	-7.129580	7.424730
2.115000	-3.251560	380.750000	60.721100	0.192025	0.000000	-1.440170	-25.106500	4.950790	-2.289870	-0.065437	354.327000	-66.063400	0.216879	0.000000	-0.973430	24.956900	-6.943830	7.483990
2.120000	-3.772970	376.728000	60.006200	0.193014	0.000000	-1.439810	-24.979100	4.688740	-1.911950	-0.493155	348.165000	-66.314300	0.217364	0.000000	-0.974279	24.828200	-6.895380	7.584800
2.125000	-4.589020	375.961000	59.562600	0.193681	0.000000	-1.439370	-25.104100	4.552930	-1.665600	-0.841300	345.219000	-65.845900	0.218133	0.000000	-0.974079	24.557700	-6.859580	7.807410
2.130000	-5.036800	372.267000	59.376000	0.194698	0.000000	-1.438740	-25.097000	4.292920	-1.285180	-0.751453	344.109000	-65.745800	0.218506	0.000000	-0.973882	24.408500	-6.673820	7.885780
2.135000	-5.572050	368.916000	58.484500	0.194477	0.000000	-1.439050	-24.763700	4.294190	-1.348910	-1.342160	340.085000	-65.168000	0.219804	0.000000	-0.974749	24.432100	-6.532420	8.252460
2.140000	-5.973580	364.509000	59.029800	0.195472	0.000000	-1.438180	-24.788000	4.053420	-0.971865	-1.869440	336.789000	-64.785100	0.219869	0.000000	-0.975073	24.316800	-6.398060	8.195920
2.145000	-5.960900	360.070000	58.309300	0.196391	0.000000	-1.438680	-24.307800	4.004080	-0.620278	-1.835020	331.695000	-64.550700	0.219941	0.000000	-0.975094	23.955900	-6.310090	8.118670
2.150000	-6.040360	355.258000	59.919700	0.196970	0.000000	-1.437730	-24.323700	3.833470	-0.390762	-2.636460	328.722000	-64.334200	0.220454	0.000000	-0.974285	23.495000	-6.252140	8.241720
2.155000	-5.324380	351.878000	59.282800	0.196836	0.000000	-1.437970	-24.000000	3.818240	-0.440628	-2.190750	324.390000	-63.887600	0.220474	0.000000	-0.973228	22.832600	-6.165080	8.143660
2.160000	-5.475220	350.797000	59.636400	0.197949	0.000000	-1.437580	-24.062400	3.699020	-0.047832	-2.168880	320.633000	-63.704100	0.220736	0.000000	-0.974186	22.875600	-6.054940	8.144800
2.165000	-4.917210	348.185000	59.700400	0.198922	0.000000	-1.436900	-24.114700	3.605510	0.290001	-2.830050	314.438000	-62.410900	0.221449	0.000000	-0.975206	22.771800	-5.963600	8.234310
2.170000	-4.898200	344.092000	59.512700	0.199936	0.000000	-1.436390	-24.008400	3.547920	0.649997	-3.085840	310.073000	-61.498100	0.221739	0.000000	-0.974159	22.138700	-5.895050	8.218730
2.175000	-4.462870	343.315000	59.139900	0.200665	0.000000	-1.436820	-23.797200	3.354820	0.865995	-3.134140	304.249000	-60.214600	0.222262	0.000000	-0.975050	21.996300	-5.733950	8.218050
